<svg width="56" height="46" viewBox="0 0 56 46" fill="none" xmlns="http://www.w3.org/2000/svg">
<path d="M49.8863 11.2781C49.927 11.7699 49.9326 12.2621 49.9381 12.7542C50.1066 27.765 38.8636 45.1892 17.9599 45.4238C11.5199 45.4961 5.51651 43.7 0.447842 40.5224C1.36403 40.6176 2.24412 40.6429 3.19433 40.6322C8.50813 40.5726 13.3797 38.7248 17.2516 35.6226C12.2532 35.5732 8.02876 32.3509 6.53539 27.8673C7.24045 27.9648 7.94502 28.0273 8.68411 28.019C9.70462 28.0075 10.7237 27.8554 11.671 27.5988C6.45088 26.6025 2.49323 22.0764 2.43128 16.5572L2.42971 16.4166C3.95234 17.2433 5.71797 17.7509 7.58376 17.8002C4.49923 15.7956 2.45435 12.3379 2.41015 8.40061C2.38648 6.2914 2.92773 4.35161 3.89421 2.65315C9.56698 9.48053 18.0282 13.8858 27.4649 14.2722C27.2795 13.4304 27.1641 12.5528 27.1542 11.674C27.084 5.41648 32.0943 0.262328 38.3935 0.191624C41.6663 0.15489 44.6377 1.49272 46.7389 3.68412C49.3023 3.16315 51.755 2.18629 53.9224 0.861136C53.1073 3.50723 51.3374 5.74208 48.9954 7.17461C51.2801 6.90297 53.4901 6.24518 55.5213 5.34351C53.9983 7.61065 52.0852 9.63607 49.8863 11.2781Z" fill="#C0BAF5"/>
</svg>
